<mxfile host="app.diagrams.net" modified="2022-01-21T07:45:08.550Z" agent="5.0 (Windows NT 10.0; Win64; x64) AppleWebKit/537.36 (KHTML, like Gecko) Chrome/97.0.4692.71 Safari/537.36" etag="S-7YwDaSg1LeZkTlv-YD" version="16.4.3" type="github">
  <diagram id="3GgzsFp0UbqMboiFKTi2" name="Page-1">
    <mxGraphModel dx="1888" dy="575" grid="1" gridSize="10" guides="1" tooltips="1" connect="1" arrows="1" fold="1" page="1" pageScale="1" pageWidth="850" pageHeight="1100" math="0" shadow="0">
      <root>
        <mxCell id="0" />
        <mxCell id="1" parent="0" />
        <mxCell id="KaG0eBUO-XGU98qHvBi6-1" value="&lt;b&gt;&amp;lt;&amp;lt;interface&amp;gt;&amp;gt;&lt;br&gt;PizzaIngredientFactory&lt;/b&gt;&lt;br&gt;------------------------------------&lt;br&gt;&lt;div style=&quot;text-align: left&quot;&gt;&lt;span&gt;createDough()&lt;/span&gt;&lt;/div&gt;&lt;div style=&quot;text-align: left&quot;&gt;&lt;span&gt;createSauce()&lt;/span&gt;&lt;/div&gt;&lt;div style=&quot;text-align: left&quot;&gt;&lt;span&gt;createCheese()&lt;/span&gt;&lt;/div&gt;&lt;div style=&quot;text-align: left&quot;&gt;&lt;span&gt;createVeggies()&lt;/span&gt;&lt;/div&gt;&lt;div style=&quot;text-align: left&quot;&gt;&lt;span&gt;createPepperoni()&lt;/span&gt;&lt;/div&gt;&lt;div style=&quot;text-align: left&quot;&gt;&lt;span&gt;createClam()&lt;/span&gt;&lt;/div&gt;" style="rounded=0;whiteSpace=wrap;html=1;" vertex="1" parent="1">
          <mxGeometry x="100" y="50" width="150" height="150" as="geometry" />
        </mxCell>
        <mxCell id="KaG0eBUO-XGU98qHvBi6-30" style="edgeStyle=orthogonalEdgeStyle;rounded=0;orthogonalLoop=1;jettySize=auto;html=1;exitX=0;exitY=0.5;exitDx=0;exitDy=0;entryX=1;entryY=0.5;entryDx=0;entryDy=0;endArrow=classic;endFill=1;" edge="1" parent="1" source="KaG0eBUO-XGU98qHvBi6-3" target="KaG0eBUO-XGU98qHvBi6-1">
          <mxGeometry relative="1" as="geometry" />
        </mxCell>
        <mxCell id="KaG0eBUO-XGU98qHvBi6-40" style="edgeStyle=orthogonalEdgeStyle;rounded=0;orthogonalLoop=1;jettySize=auto;html=1;exitX=1;exitY=0.5;exitDx=0;exitDy=0;entryX=1;entryY=0.5;entryDx=0;entryDy=0;endArrow=classic;endFill=1;" edge="1" parent="1" source="KaG0eBUO-XGU98qHvBi6-3" target="KaG0eBUO-XGU98qHvBi6-7">
          <mxGeometry relative="1" as="geometry">
            <Array as="points">
              <mxPoint x="720" y="50" />
              <mxPoint x="720" y="140" />
            </Array>
          </mxGeometry>
        </mxCell>
        <mxCell id="KaG0eBUO-XGU98qHvBi6-41" style="edgeStyle=orthogonalEdgeStyle;rounded=0;orthogonalLoop=1;jettySize=auto;html=1;exitX=1;exitY=0.5;exitDx=0;exitDy=0;entryX=1;entryY=0.5;entryDx=0;entryDy=0;endArrow=classic;endFill=1;" edge="1" parent="1" source="KaG0eBUO-XGU98qHvBi6-3" target="KaG0eBUO-XGU98qHvBi6-10">
          <mxGeometry relative="1" as="geometry">
            <Array as="points">
              <mxPoint x="720" y="50" />
              <mxPoint x="720" y="300" />
            </Array>
          </mxGeometry>
        </mxCell>
        <mxCell id="KaG0eBUO-XGU98qHvBi6-42" style="edgeStyle=orthogonalEdgeStyle;rounded=0;orthogonalLoop=1;jettySize=auto;html=1;entryX=1;entryY=0.5;entryDx=0;entryDy=0;endArrow=classic;endFill=1;" edge="1" parent="1" source="KaG0eBUO-XGU98qHvBi6-3" target="KaG0eBUO-XGU98qHvBi6-13">
          <mxGeometry relative="1" as="geometry">
            <Array as="points">
              <mxPoint x="720" y="50" />
              <mxPoint x="720" y="460" />
            </Array>
          </mxGeometry>
        </mxCell>
        <mxCell id="KaG0eBUO-XGU98qHvBi6-43" style="edgeStyle=orthogonalEdgeStyle;rounded=0;orthogonalLoop=1;jettySize=auto;html=1;entryX=1;entryY=0.5;entryDx=0;entryDy=0;endArrow=classic;endFill=1;" edge="1" parent="1" source="KaG0eBUO-XGU98qHvBi6-3" target="KaG0eBUO-XGU98qHvBi6-14">
          <mxGeometry relative="1" as="geometry">
            <Array as="points">
              <mxPoint x="720" y="50" />
              <mxPoint x="720" y="640" />
            </Array>
          </mxGeometry>
        </mxCell>
        <mxCell id="KaG0eBUO-XGU98qHvBi6-3" value="&lt;b&gt;Pizza&lt;/b&gt;&lt;br&gt;-----------------------------" style="rounded=0;whiteSpace=wrap;html=1;" vertex="1" parent="1">
          <mxGeometry x="530" y="20" width="130" height="60" as="geometry" />
        </mxCell>
        <mxCell id="KaG0eBUO-XGU98qHvBi6-31" style="edgeStyle=orthogonalEdgeStyle;rounded=0;orthogonalLoop=1;jettySize=auto;html=1;exitX=0;exitY=0.5;exitDx=0;exitDy=0;endArrow=classic;endFill=1;entryX=1;entryY=0.5;entryDx=0;entryDy=0;" edge="1" parent="1" source="KaG0eBUO-XGU98qHvBi6-5" target="KaG0eBUO-XGU98qHvBi6-18">
          <mxGeometry relative="1" as="geometry">
            <mxPoint x="260" y="621.3333638509115" as="targetPoint" />
            <Array as="points">
              <mxPoint y="380" />
              <mxPoint y="810" />
              <mxPoint x="810" y="810" />
              <mxPoint x="810" y="730" />
            </Array>
          </mxGeometry>
        </mxCell>
        <mxCell id="KaG0eBUO-XGU98qHvBi6-32" style="edgeStyle=orthogonalEdgeStyle;rounded=0;orthogonalLoop=1;jettySize=auto;html=1;exitX=0;exitY=0.5;exitDx=0;exitDy=0;entryX=1;entryY=0.5;entryDx=0;entryDy=0;endArrow=classic;endFill=1;" edge="1" parent="1" source="KaG0eBUO-XGU98qHvBi6-5" target="KaG0eBUO-XGU98qHvBi6-16">
          <mxGeometry relative="1" as="geometry">
            <Array as="points">
              <mxPoint y="380" />
              <mxPoint y="810" />
              <mxPoint x="810" y="810" />
              <mxPoint x="810" y="550" />
            </Array>
          </mxGeometry>
        </mxCell>
        <mxCell id="KaG0eBUO-XGU98qHvBi6-33" style="edgeStyle=orthogonalEdgeStyle;rounded=0;orthogonalLoop=1;jettySize=auto;html=1;exitX=0;exitY=0.5;exitDx=0;exitDy=0;entryX=1;entryY=0.5;entryDx=0;entryDy=0;endArrow=classic;endFill=1;" edge="1" parent="1" source="KaG0eBUO-XGU98qHvBi6-5" target="KaG0eBUO-XGU98qHvBi6-12">
          <mxGeometry relative="1" as="geometry">
            <Array as="points">
              <mxPoint y="380" />
              <mxPoint y="810" />
              <mxPoint x="810" y="810" />
              <mxPoint x="810" y="380" />
            </Array>
          </mxGeometry>
        </mxCell>
        <mxCell id="KaG0eBUO-XGU98qHvBi6-34" style="edgeStyle=orthogonalEdgeStyle;rounded=0;orthogonalLoop=1;jettySize=auto;html=1;exitX=0;exitY=0.5;exitDx=0;exitDy=0;entryX=1;entryY=0.5;entryDx=0;entryDy=0;endArrow=classic;endFill=1;" edge="1" parent="1" source="KaG0eBUO-XGU98qHvBi6-5" target="KaG0eBUO-XGU98qHvBi6-9">
          <mxGeometry relative="1" as="geometry">
            <Array as="points">
              <mxPoint y="380" />
              <mxPoint y="810" />
              <mxPoint x="810" y="810" />
              <mxPoint x="810" y="220" />
            </Array>
          </mxGeometry>
        </mxCell>
        <mxCell id="KaG0eBUO-XGU98qHvBi6-5" value="&lt;b&gt;NYPizzaIngredientFactory&lt;/b&gt;&lt;br&gt;------------------------------------&lt;br&gt;&lt;div style=&quot;text-align: left&quot;&gt;&lt;span&gt;createDough()&lt;/span&gt;&lt;/div&gt;&lt;div style=&quot;text-align: left&quot;&gt;&lt;span&gt;createSauce()&lt;/span&gt;&lt;/div&gt;&lt;div style=&quot;text-align: left&quot;&gt;&lt;span&gt;createCheese()&lt;/span&gt;&lt;/div&gt;&lt;div style=&quot;text-align: left&quot;&gt;&lt;span&gt;createVeggies()&lt;/span&gt;&lt;/div&gt;&lt;div style=&quot;text-align: left&quot;&gt;&lt;span&gt;createPepperoni()&lt;/span&gt;&lt;/div&gt;&lt;div style=&quot;text-align: left&quot;&gt;&lt;span&gt;createClam()&lt;/span&gt;&lt;/div&gt;" style="rounded=0;whiteSpace=wrap;html=1;" vertex="1" parent="1">
          <mxGeometry x="20" y="305" width="150" height="150" as="geometry" />
        </mxCell>
        <mxCell id="KaG0eBUO-XGU98qHvBi6-35" style="edgeStyle=orthogonalEdgeStyle;rounded=0;orthogonalLoop=1;jettySize=auto;html=1;exitX=1;exitY=0.5;exitDx=0;exitDy=0;entryX=0;entryY=0.5;entryDx=0;entryDy=0;endArrow=classic;endFill=1;" edge="1" parent="1" source="KaG0eBUO-XGU98qHvBi6-6" target="KaG0eBUO-XGU98qHvBi6-11">
          <mxGeometry relative="1" as="geometry" />
        </mxCell>
        <mxCell id="KaG0eBUO-XGU98qHvBi6-36" style="edgeStyle=orthogonalEdgeStyle;rounded=0;orthogonalLoop=1;jettySize=auto;html=1;exitX=1;exitY=0.5;exitDx=0;exitDy=0;entryX=0;entryY=0.5;entryDx=0;entryDy=0;endArrow=classic;endFill=1;" edge="1" parent="1" source="KaG0eBUO-XGU98qHvBi6-6" target="KaG0eBUO-XGU98qHvBi6-8">
          <mxGeometry relative="1" as="geometry">
            <Array as="points">
              <mxPoint x="400" y="380" />
              <mxPoint x="400" y="220" />
            </Array>
          </mxGeometry>
        </mxCell>
        <mxCell id="KaG0eBUO-XGU98qHvBi6-37" style="edgeStyle=orthogonalEdgeStyle;rounded=0;orthogonalLoop=1;jettySize=auto;html=1;exitX=1;exitY=0.5;exitDx=0;exitDy=0;entryX=0;entryY=0.5;entryDx=0;entryDy=0;endArrow=classic;endFill=1;" edge="1" parent="1" source="KaG0eBUO-XGU98qHvBi6-6" target="KaG0eBUO-XGU98qHvBi6-15">
          <mxGeometry relative="1" as="geometry">
            <Array as="points">
              <mxPoint x="400" y="380" />
              <mxPoint x="400" y="550" />
            </Array>
          </mxGeometry>
        </mxCell>
        <mxCell id="KaG0eBUO-XGU98qHvBi6-38" style="edgeStyle=orthogonalEdgeStyle;rounded=0;orthogonalLoop=1;jettySize=auto;html=1;exitX=1;exitY=0.5;exitDx=0;exitDy=0;entryX=0;entryY=0.5;entryDx=0;entryDy=0;endArrow=classic;endFill=1;" edge="1" parent="1" source="KaG0eBUO-XGU98qHvBi6-6" target="KaG0eBUO-XGU98qHvBi6-17">
          <mxGeometry relative="1" as="geometry">
            <Array as="points">
              <mxPoint x="400" y="380" />
              <mxPoint x="400" y="730" />
            </Array>
          </mxGeometry>
        </mxCell>
        <mxCell id="KaG0eBUO-XGU98qHvBi6-6" value="&lt;b&gt;ChicagoPizzaIngredientFactory&lt;/b&gt;&lt;br&gt;------------------------------------&lt;br&gt;&lt;div style=&quot;text-align: left&quot;&gt;&lt;span&gt;createDough()&lt;/span&gt;&lt;/div&gt;&lt;div style=&quot;text-align: left&quot;&gt;&lt;span&gt;createSauce()&lt;/span&gt;&lt;/div&gt;&lt;div style=&quot;text-align: left&quot;&gt;&lt;span&gt;createCheese()&lt;/span&gt;&lt;/div&gt;&lt;div style=&quot;text-align: left&quot;&gt;&lt;span&gt;createVeggies()&lt;/span&gt;&lt;/div&gt;&lt;div style=&quot;text-align: left&quot;&gt;&lt;span&gt;createPepperoni()&lt;/span&gt;&lt;/div&gt;&lt;div style=&quot;text-align: left&quot;&gt;&lt;span&gt;createClam()&lt;/span&gt;&lt;/div&gt;" style="rounded=0;whiteSpace=wrap;html=1;" vertex="1" parent="1">
          <mxGeometry x="190" y="305" width="190" height="150" as="geometry" />
        </mxCell>
        <mxCell id="KaG0eBUO-XGU98qHvBi6-7" value="&lt;b&gt;&amp;lt;&amp;lt;interface&amp;gt;&amp;gt;&lt;br&gt;Dough&lt;br&gt;&lt;/b&gt;-----------------------------" style="rounded=0;whiteSpace=wrap;html=1;" vertex="1" parent="1">
          <mxGeometry x="530" y="110" width="120" height="60" as="geometry" />
        </mxCell>
        <mxCell id="KaG0eBUO-XGU98qHvBi6-8" value="&lt;b&gt;ThickCrustDough&lt;br&gt;&lt;/b&gt;-----------------------------" style="rounded=0;whiteSpace=wrap;html=1;" vertex="1" parent="1">
          <mxGeometry x="430" y="190" width="120" height="60" as="geometry" />
        </mxCell>
        <mxCell id="KaG0eBUO-XGU98qHvBi6-9" value="&lt;b&gt;ThinCrustDough&lt;br&gt;&lt;/b&gt;-----------------------------" style="rounded=0;whiteSpace=wrap;html=1;" vertex="1" parent="1">
          <mxGeometry x="630" y="190" width="120" height="60" as="geometry" />
        </mxCell>
        <mxCell id="KaG0eBUO-XGU98qHvBi6-10" value="&lt;b&gt;&amp;lt;&amp;lt;interface&amp;gt;&amp;gt;&lt;br&gt;Sauce&lt;br&gt;&lt;/b&gt;-----------------------------" style="rounded=0;whiteSpace=wrap;html=1;" vertex="1" parent="1">
          <mxGeometry x="535" y="270" width="120" height="60" as="geometry" />
        </mxCell>
        <mxCell id="KaG0eBUO-XGU98qHvBi6-11" value="&lt;b&gt;PlumTomatoSauce&lt;br&gt;&lt;/b&gt;-----------------------------" style="rounded=0;whiteSpace=wrap;html=1;" vertex="1" parent="1">
          <mxGeometry x="420" y="350" width="125" height="60" as="geometry" />
        </mxCell>
        <mxCell id="KaG0eBUO-XGU98qHvBi6-12" value="&lt;b&gt;MarinaraSauce&lt;/b&gt;&lt;br&gt;-----------------------------" style="rounded=0;whiteSpace=wrap;html=1;" vertex="1" parent="1">
          <mxGeometry x="660" y="350" width="120" height="60" as="geometry" />
        </mxCell>
        <mxCell id="KaG0eBUO-XGU98qHvBi6-13" value="&lt;b&gt;&amp;lt;&amp;lt;interface&amp;gt;&amp;gt;&lt;br&gt;Cheese&lt;br&gt;&lt;/b&gt;-----------------------------" style="rounded=0;whiteSpace=wrap;html=1;" vertex="1" parent="1">
          <mxGeometry x="535" y="430" width="120" height="60" as="geometry" />
        </mxCell>
        <mxCell id="KaG0eBUO-XGU98qHvBi6-14" value="&lt;b&gt;&amp;lt;&amp;lt;interface&amp;gt;&amp;gt;&lt;br&gt;Clams&lt;br&gt;&lt;/b&gt;-----------------------------" style="rounded=0;whiteSpace=wrap;html=1;" vertex="1" parent="1">
          <mxGeometry x="550" y="610" width="120" height="60" as="geometry" />
        </mxCell>
        <mxCell id="KaG0eBUO-XGU98qHvBi6-15" value="&lt;b&gt;MozzarellaCheese&lt;br&gt;&lt;/b&gt;-----------------------------" style="rounded=0;whiteSpace=wrap;html=1;" vertex="1" parent="1">
          <mxGeometry x="430" y="520" width="120" height="60" as="geometry" />
        </mxCell>
        <mxCell id="KaG0eBUO-XGU98qHvBi6-16" value="&lt;b&gt;ReggianoCheese&lt;br&gt;&lt;/b&gt;-----------------------------" style="rounded=0;whiteSpace=wrap;html=1;" vertex="1" parent="1">
          <mxGeometry x="670" y="520" width="120" height="60" as="geometry" />
        </mxCell>
        <mxCell id="KaG0eBUO-XGU98qHvBi6-17" value="&lt;b&gt;FrozenClam&lt;br&gt;&lt;/b&gt;-----------------------------" style="rounded=0;whiteSpace=wrap;html=1;" vertex="1" parent="1">
          <mxGeometry x="430" y="700" width="120" height="60" as="geometry" />
        </mxCell>
        <mxCell id="KaG0eBUO-XGU98qHvBi6-18" value="&lt;b&gt;FrestClam&lt;br&gt;&lt;/b&gt;-----------------------------" style="rounded=0;whiteSpace=wrap;html=1;" vertex="1" parent="1">
          <mxGeometry x="670" y="700" width="120" height="60" as="geometry" />
        </mxCell>
        <mxCell id="KaG0eBUO-XGU98qHvBi6-19" value="" style="endArrow=block;dashed=1;html=1;dashPattern=1 3;strokeWidth=2;rounded=0;entryX=0.313;entryY=1.013;entryDx=0;entryDy=0;entryPerimeter=0;exitX=0.349;exitY=-0.009;exitDx=0;exitDy=0;exitPerimeter=0;endFill=0;" edge="1" parent="1" source="KaG0eBUO-XGU98qHvBi6-5" target="KaG0eBUO-XGU98qHvBi6-1">
          <mxGeometry width="50" height="50" relative="1" as="geometry">
            <mxPoint x="80" y="240" as="sourcePoint" />
            <mxPoint x="130" y="190" as="targetPoint" />
          </mxGeometry>
        </mxCell>
        <mxCell id="KaG0eBUO-XGU98qHvBi6-20" value="" style="endArrow=block;dashed=1;html=1;dashPattern=1 3;strokeWidth=2;rounded=0;entryX=0.75;entryY=1;entryDx=0;entryDy=0;exitX=0.296;exitY=-0.022;exitDx=0;exitDy=0;exitPerimeter=0;endFill=0;" edge="1" parent="1" source="KaG0eBUO-XGU98qHvBi6-6" target="KaG0eBUO-XGU98qHvBi6-1">
          <mxGeometry width="50" height="50" relative="1" as="geometry">
            <mxPoint x="210" y="230" as="sourcePoint" />
            <mxPoint x="260" y="180" as="targetPoint" />
          </mxGeometry>
        </mxCell>
        <mxCell id="KaG0eBUO-XGU98qHvBi6-21" value="" style="endArrow=blockThin;dashed=1;html=1;dashPattern=1 3;strokeWidth=2;rounded=0;exitX=0.5;exitY=0;exitDx=0;exitDy=0;entryX=0.25;entryY=1;entryDx=0;entryDy=0;endFill=0;" edge="1" parent="1" source="KaG0eBUO-XGU98qHvBi6-8" target="KaG0eBUO-XGU98qHvBi6-7">
          <mxGeometry width="50" height="50" relative="1" as="geometry">
            <mxPoint x="500" y="220" as="sourcePoint" />
            <mxPoint x="550" y="170" as="targetPoint" />
          </mxGeometry>
        </mxCell>
        <mxCell id="KaG0eBUO-XGU98qHvBi6-22" value="" style="endArrow=block;dashed=1;html=1;dashPattern=1 3;strokeWidth=2;rounded=0;entryX=0.75;entryY=1;entryDx=0;entryDy=0;exitX=0.419;exitY=0;exitDx=0;exitDy=0;exitPerimeter=0;endFill=0;" edge="1" parent="1" source="KaG0eBUO-XGU98qHvBi6-9" target="KaG0eBUO-XGU98qHvBi6-7">
          <mxGeometry width="50" height="50" relative="1" as="geometry">
            <mxPoint x="620" y="210" as="sourcePoint" />
            <mxPoint x="670" y="160" as="targetPoint" />
          </mxGeometry>
        </mxCell>
        <mxCell id="KaG0eBUO-XGU98qHvBi6-23" value="" style="endArrow=block;dashed=1;html=1;dashPattern=1 3;strokeWidth=2;rounded=0;exitX=0.5;exitY=0;exitDx=0;exitDy=0;entryX=0.25;entryY=1;entryDx=0;entryDy=0;endFill=0;" edge="1" parent="1" source="KaG0eBUO-XGU98qHvBi6-11" target="KaG0eBUO-XGU98qHvBi6-10">
          <mxGeometry width="50" height="50" relative="1" as="geometry">
            <mxPoint x="490" y="370" as="sourcePoint" />
            <mxPoint x="540" y="320" as="targetPoint" />
          </mxGeometry>
        </mxCell>
        <mxCell id="KaG0eBUO-XGU98qHvBi6-24" value="" style="endArrow=block;dashed=1;html=1;dashPattern=1 3;strokeWidth=2;rounded=0;entryX=0.75;entryY=1;entryDx=0;entryDy=0;exitX=0.5;exitY=0;exitDx=0;exitDy=0;endFill=0;" edge="1" parent="1" source="KaG0eBUO-XGU98qHvBi6-12" target="KaG0eBUO-XGU98qHvBi6-10">
          <mxGeometry width="50" height="50" relative="1" as="geometry">
            <mxPoint x="670" y="370" as="sourcePoint" />
            <mxPoint x="720" y="320" as="targetPoint" />
          </mxGeometry>
        </mxCell>
        <mxCell id="KaG0eBUO-XGU98qHvBi6-25" value="" style="endArrow=block;dashed=1;html=1;dashPattern=1 3;strokeWidth=2;rounded=0;exitX=0.5;exitY=0;exitDx=0;exitDy=0;entryX=0.5;entryY=1;entryDx=0;entryDy=0;endFill=0;" edge="1" parent="1" source="KaG0eBUO-XGU98qHvBi6-15" target="KaG0eBUO-XGU98qHvBi6-13">
          <mxGeometry width="50" height="50" relative="1" as="geometry">
            <mxPoint x="550" y="530" as="sourcePoint" />
            <mxPoint x="600" y="480" as="targetPoint" />
          </mxGeometry>
        </mxCell>
        <mxCell id="KaG0eBUO-XGU98qHvBi6-27" value="" style="endArrow=block;dashed=1;html=1;dashPattern=1 3;strokeWidth=2;rounded=0;entryX=0.75;entryY=1;entryDx=0;entryDy=0;exitX=0.5;exitY=0;exitDx=0;exitDy=0;endFill=0;" edge="1" parent="1" source="KaG0eBUO-XGU98qHvBi6-16" target="KaG0eBUO-XGU98qHvBi6-13">
          <mxGeometry width="50" height="50" relative="1" as="geometry">
            <mxPoint x="420" y="580" as="sourcePoint" />
            <mxPoint x="470" y="530" as="targetPoint" />
          </mxGeometry>
        </mxCell>
        <mxCell id="KaG0eBUO-XGU98qHvBi6-28" value="" style="endArrow=block;dashed=1;html=1;dashPattern=1 3;strokeWidth=2;rounded=0;exitX=0.5;exitY=0;exitDx=0;exitDy=0;entryX=0.25;entryY=1;entryDx=0;entryDy=0;endFill=0;" edge="1" parent="1" source="KaG0eBUO-XGU98qHvBi6-17" target="KaG0eBUO-XGU98qHvBi6-14">
          <mxGeometry width="50" height="50" relative="1" as="geometry">
            <mxPoint x="420" y="580" as="sourcePoint" />
            <mxPoint x="470" y="530" as="targetPoint" />
          </mxGeometry>
        </mxCell>
        <mxCell id="KaG0eBUO-XGU98qHvBi6-29" value="" style="endArrow=block;dashed=1;html=1;dashPattern=1 3;strokeWidth=2;rounded=0;exitX=0.553;exitY=-0.067;exitDx=0;exitDy=0;exitPerimeter=0;entryX=0.75;entryY=1;entryDx=0;entryDy=0;endFill=0;" edge="1" parent="1" source="KaG0eBUO-XGU98qHvBi6-18" target="KaG0eBUO-XGU98qHvBi6-14">
          <mxGeometry width="50" height="50" relative="1" as="geometry">
            <mxPoint x="420" y="580" as="sourcePoint" />
            <mxPoint x="470" y="530" as="targetPoint" />
          </mxGeometry>
        </mxCell>
      </root>
    </mxGraphModel>
  </diagram>
</mxfile>
